<svg width="591" height="63" viewBox="0 0 591 63" fill="none" xmlns="http://www.w3.org/2000/svg">
<g filter="url(#filter0_d_30_372)">
<rect x="4" width="583" height="55" rx="5" fill="#615033" shape-rendering="crispEdges"/>
<path d="M282.905 31.72V33H276.761V22.968H278.121V31.72H282.905ZM291.078 29.032C291.078 30.5253 290.801 31.5813 290.246 32.2C289.702 32.8187 288.763 33.128 287.43 33.128C286.054 33.128 285.099 32.8293 284.566 32.232C284.033 31.6347 283.766 30.568 283.766 29.032C283.766 27.528 284.038 26.472 284.582 25.864C285.137 25.2453 286.086 24.936 287.43 24.936C288.806 24.936 289.755 25.2347 290.278 25.832C290.811 26.4293 291.078 27.496 291.078 29.032ZM285.078 29.016C285.078 30.1893 285.233 30.968 285.542 31.352C285.851 31.7253 286.481 31.912 287.43 31.912C288.347 31.912 288.966 31.7147 289.286 31.32C289.606 30.9147 289.766 30.1467 289.766 29.016C289.766 27.8427 289.611 27.0693 289.302 26.696C289.003 26.312 288.379 26.12 287.43 26.12C286.502 26.12 285.878 26.3173 285.558 26.712C285.238 27.1067 285.078 27.8747 285.078 29.016ZM296.038 35.592C295.504 35.592 295.003 35.5547 294.534 35.48C294.075 35.416 293.696 35.3253 293.398 35.208V34.04C293.643 34.136 294 34.216 294.47 34.28C294.95 34.344 295.424 34.376 295.894 34.376C296.694 34.376 297.248 34.216 297.558 33.896C297.867 33.5867 298.022 33.032 298.022 32.232V31.736C297.627 31.9707 297.206 32.152 296.758 32.28C296.31 32.3973 295.856 32.456 295.398 32.456C294.342 32.456 293.584 32.1627 293.126 31.576C292.678 30.9893 292.454 30.0293 292.454 28.696C292.454 27.3413 292.742 26.376 293.318 25.8C293.904 25.224 294.896 24.936 296.294 24.936C296.795 24.936 297.334 24.968 297.91 25.032C298.486 25.0853 298.96 25.1547 299.334 25.24V31.864C299.334 33.2507 299.088 34.216 298.598 34.76C298.107 35.3147 297.254 35.592 296.038 35.592ZM296.294 26.12C295.27 26.12 294.592 26.296 294.262 26.648C293.931 27 293.766 27.6827 293.766 28.696C293.766 29.656 293.904 30.3227 294.182 30.696C294.47 31.0587 295.019 31.24 295.83 31.24C296.182 31.24 296.544 31.192 296.918 31.096C297.302 30.9893 297.67 30.8453 298.022 30.664V26.296C297.766 26.2427 297.488 26.2 297.19 26.168C296.902 26.136 296.603 26.12 296.294 26.12ZM305.525 23.72H304.117V22.36H305.525V23.72ZM305.477 33H304.165V25.096H305.477V33ZM308.899 33H307.587V25.096H308.723L308.787 25.864H308.835C309.262 25.544 309.705 25.3093 310.163 25.16C310.633 25.0107 311.155 24.936 311.731 24.936C312.606 24.936 313.267 25.1547 313.715 25.592C314.174 26.0293 314.403 26.6747 314.403 27.528V33H313.091V27.688C313.091 27.1547 312.942 26.76 312.643 26.504C312.345 26.248 311.886 26.12 311.267 26.12C310.883 26.12 310.489 26.184 310.083 26.312C309.689 26.4293 309.294 26.6053 308.899 26.84V33Z" fill="white"/>
</g>
<defs>
<filter id="filter0_d_30_372" x="0" y="0" width="591" height="63" filterUnits="userSpaceOnUse" color-interpolation-filters="sRGB">
<feFlood flood-opacity="0" result="BackgroundImageFix"/>
<feColorMatrix in="SourceAlpha" type="matrix" values="0 0 0 0 0 0 0 0 0 0 0 0 0 0 0 0 0 0 127 0" result="hardAlpha"/>
<feOffset dy="4"/>
<feGaussianBlur stdDeviation="2"/>
<feComposite in2="hardAlpha" operator="out"/>
<feColorMatrix type="matrix" values="0 0 0 0 0 0 0 0 0 0 0 0 0 0 0 0 0 0 0.25 0"/>
<feBlend mode="normal" in2="BackgroundImageFix" result="effect1_dropShadow_30_372"/>
<feBlend mode="normal" in="SourceGraphic" in2="effect1_dropShadow_30_372" result="shape"/>
</filter>
</defs>
</svg>
